<svg width="1187" height="1187" viewBox="0 0 1187 1187" fill="none" xmlns="http://www.w3.org/2000/svg">
<g clip-path="url(#clip0_2_6)">
<circle cx="593.5" cy="593.5" r="593.5" fill="#D9D9D9"/>
<path d="M434.667 315.335C395.462 315.366 374.912 315.864 358.983 323.98C344.056 331.586 331.919 343.722 324.314 358.65C315.667 375.62 315.667 397.836 315.667 442.267V823.067C315.667 867.497 315.667 889.715 324.314 906.684C331.919 921.611 344.056 933.749 358.983 941.353C375.954 950 398.169 950 442.6 950H744.067C788.497 950 810.715 950 827.684 941.353C842.611 933.749 854.749 921.611 862.353 906.684C871 889.715 871 867.497 871 823.067V442.267C871 397.836 871 375.62 862.353 358.65C854.749 343.722 842.611 331.586 827.684 323.98C811.754 315.864 791.207 315.366 752 315.335M434.667 315.335V394.667H752V315.335M434.667 315.335V303.715C434.667 285.756 441.801 268.532 454.5 255.833C467.199 243.134 484.423 236 502.382 236H684.285C702.242 236 719.469 243.134 732.167 255.833C744.864 268.532 752 285.756 752 303.715V315.335M712.333 593H593.333M712.333 751.667H593.333M474.333 593H474.73M474.333 751.667H474.73" stroke="black" stroke-width="79.3333" stroke-linecap="round" stroke-linejoin="round"/>
</g>
<defs>
<clipPath id="clip0_2_6">
<rect width="1187" height="1187" fill="white"/>
</clipPath>
</defs>
</svg>
